<?xml version="1.0" encoding="UTF-8" standalone="no"?>
<!-- Generator: Adobe Illustrator 11.0, SVG Export Plug-In . SVG Version: 6.0.0 Build 78)  -->
<svg
   xmlns:xap="http://ns.adobe.com/xap/1.0/"
   xmlns:x="adobe:ns:meta/"
   xmlns:dc="http://purl.org/dc/elements/1.1/"
   xmlns:cc="http://web.resource.org/cc/"
   xmlns:rdf="http://www.w3.org/1999/02/22-rdf-syntax-ns#"
   xmlns:svg="http://www.w3.org/2000/svg"
   xmlns="http://www.w3.org/2000/svg"
   xmlns:sodipodi="http://sodipodi.sourceforge.net/DTD/sodipodi-0.dtd"
   xmlns:inkscape="http://www.inkscape.org/namespaces/inkscape"
   width="1113.944"
   height="834.958"
   viewBox="0 0 1113.944 834.958"
   xml:space="preserve"
   id="svg2"
   version="1.1"
   font-family="Bitstream Vera Sans, sans-serif"
   font-size="18px">
  
  <sodipodi:namedview
   inkscape:window-height="1000"
   inkscape:window-width="1680"
   inkscape:pageshadow="2"
   inkscape:pageopacity="0.0"
   guidetolerance="10.0"
   gridtolerance="10.0"
   objecttolerance="10.0"
   borderopacity="1.0"
   bordercolor="#666666"
   pagecolor="#ffffff"
   id="base"
   inkscape:zoom="0.96785369"
   inkscape:cx="681.57844"
   inkscape:cy="369.86923"
   inkscape:window-x="-8"
   inkscape:window-y="-8"
   inkscape:current-layer="Layer_2"/>
  
	<metadata id="metadata4">
    <x:xmpmeta x:xmptk="XMP toolkit 3.0-29, framework 1.6">
      <metadata id="metadata640">
        <rdf:RDF>
          <rdf:Description rdf:about="">
            <xap:CreateDate>2007-03-20T05:37:13Z</xap:CreateDate>
            <xap:ModifyDate>2007-03-20T05:38:10Z</xap:ModifyDate>
            <xap:CreatorTool>Illustrator</xap:CreatorTool>
          </rdf:Description>

          <rdf:Description rdf:about="">
            <dc:format>image/svg+xml</dc:format>
          </rdf:Description>

          <cc:Work rdf:about="">
            <dc:format>image/svg+xml</dc:format>
            <dc:type rdf:resource="http://purl.org/dc/dcmitype/StillImage" />
          </cc:Work>
        </rdf:RDF>
      </metadata>
    </x:xmpmeta>
	</metadata>
  
  <defs id="defs638">
    <marker id="arre" markerWidth="15" markerHeight="10" refX="15" refY="5" orient="auto">
      <path d="M5,5 L0,0 L 15,5 L 0,10 L 5,5 Z" fill="black" stroke="none"/>
    </marker>
    <marker id="arrs" markerWidth="15" markerHeight="10" refX="0" refY="5" orient="auto">
      <path d="M10,5 L15,0 L 0,5 L 15,10 L 10,5 Z" fill="black" stroke="none"/>
    </marker>
  </defs>
  
  <style type="text/css">
    text {
      fill:#000000;
    }
    text.depth {
      fill:darkblue;
      text-anchor:end;
    }
    text.temp {
      fill:#000000;
      text-anchor:end;
    }
    
    .dim {
      fill:none;
      stroke:black;
      stroke-width:1;
      /* stroke-dasharray: 8 8; */
    }
    .dim2 {
      fill:none;
      stroke:black;
      stroke-width:1;
    }
  </style>
  
	<g id="Layer_2">
    
    <!-- water/sky -->
		<linearGradient id="XMLID_3_" gradientUnits="userSpaceOnUse" x1="0%" y1="0%" x2="0%" y2="100%">
      <stop offset="0.0" style="stop-color:#FFFFFF" />
			<stop offset="0.0056" style="stop-color:#FFFFFF" id="stop8" />
			<stop offset="1" style="stop-color:#2A7BB6" id="stop10" />
		</linearGradient>
    <rect x="0" y="0" fill="url(#XMLID_3_)" width="100%" height="100%" id="rect12" />
    
    <!-- continent -->
    <linearGradient id="XMLID_4_" gradientUnits="userSpaceOnUse" x1="460.2563" y1="156.4927" x2="460.2563" y2="777.4614">
				<stop offset="0" style="stop-color:#E5DFBB" id="stop23" />
				<stop offset="1" style="stop-color:#9C8014" id="stop25" />
		</linearGradient>
		<path fill="url(#XMLID_4_)" stroke="#000000" d="M0.5,84.496l93.054,26.999c0,0,35.999,29.999,98.995,46.498     s235.488,67.497,235.488,67.497s88.219,277.482,299.984,337.483c89.996,25.499,163.492,55.497,166.492,98.995     s25.499,172.491,25.499,172.491H0.5V84.496z" id="path27" />
			
    <!-- vertical line, high water -->
    <line fill="none" stroke="#000000" stroke-dasharray="8 8" x1="93.941" y1="107.888" x2="93.941" y2="309.888" id="line129" />
    <!-- vertical line, low water  -->
    <line fill="none" stroke="#000000" stroke-dasharray="8 8" x1="138.941" y1="52.888" x2="138.941" y2="266.889" id="line127" />

    <!--leader line, high water -->
		<line fill="none" stroke="#000000" x1="85.941" y1="83.888" x2="93.554" y2="111.495" id="line111" />
		<text x="58.275604" y="46.338581" id="text3763"><tspan id="tspan3765">High </tspan><tspan x="58.275604" y="68.838581" id="tspan3767">water</tspan></text>
    
    <!-- leader line, low water -->
		<line fill="none" stroke="#000000" x1="139.941" y1="139.888" x2="160" y2="135" id="line175" />
    <text x="165" y="140" id="text3781"><tspan id="tspan3783">Low water</tspan></text>
    
    <!-- water surface -->
		<line fill="none" stroke="#0000FF" x1="97.941" y1="113.888" x2="1113.944" y2="113.888" id="line113" />
			
    <!-- 200 m line -->
		<line fill="none" stroke="#000000" stroke-dasharray="2 8" x1="201.941" y1="158.888" x2="1102.941" y2="158.888" id="line14" />
    <text class="depth" x="1040" y="180.93353" id="text3803"><tspan id="tspan3805">200 m</tspan></text>
    
    <!-- 10 degC 700 to 1000 m -->
    <line fill="none" stroke="#000000" stroke-dasharray="2 8" x1="447.941" y1="276.888" x2="740" y2="276.888" id="line16" />
		<line fill="none" stroke="#000000" stroke-dasharray="2 8" x1="800" y1="276.888" x2="1101.941" y2="276.888" id="line143" />
    <text class="temp" x="790" y="283.1553" id="text3811"><tspan id="tspan3813">10 °C</tspan></text>
    <text class="depth" x="1040" y="303.88602" id="text3819"><tspan id="tspan3821">700 to 1&#8201;000 m</tspan></text>
    
    <!-- 4 degC 2000 to 4000 m -->
		<line fill="none" stroke="#000000" stroke-dasharray="2 8" x1="518.941" y1="403.888" x2="740" y2="403.888" id="line18" />
		<line fill="none" stroke="#000000" stroke-dasharray="2 8" x1="800" y1="403.888" x2="1100.941" y2="403.888" id="line145" />
    <text class="temp" x="790" y="410.30704" id="text3815"><tspan id="tspan3817">4 °C</tspan></text>
    <text class="depth" x="1040" y="426.83847" id="text3827"><tspan id="tspan3829">2&#8201;000 to 4&#8201;000 m</tspan></text>
			
    <!-- 6000 m -->
		<line fill="none" stroke="#000000" stroke-dasharray="2 8" x1="835.941" y1="600.888" x2="1101.941" y2="600.888" id="line20" />
    <text class="depth" x="1040" y="625.21558" id="text3839"><tspan id="tspan3841">6&#8201;000 m</tspan></text>
    
    <!-- 10000 m -->
    <text class="depth" x="1040" y="824.62585" id="text3883"><tspan id="tspan3885">10&#8201;000 m</tspan></text>
     
    <!-- Bathyal dimension -->
    <path class="dim2" d="M471.902,376.764c7.056,12.909,14.555,24.604,22.132,33.215" id="path31" marker-end="url(#arre)"/>
	  <path class="dim2" d="M429.537,276.486c0,0,3.892,11.862,10.374,28.875" id="path33" marker-start="url(#arrs)"/>
    <text x="453.32559" y="-284.47137" id="text3879" transform="matrix(0.3818517,0.9242236,-0.9242236,0.3818517,0,0)"><tspan
     id="tspan3881" x="453.32559" y="-284.47137">Bathyal</tspan></text>
    
    <!-- Abyssal dimension -->
		<path class="dim2" d="M663.333,556.784c40.265,22.294,87.164,40.563,139.686,48.187" id="path53" marker-end="url(#arre)"/>
		<path class="dim2" d="M501.534,417.479c0,0,28.44,39.52,79.821,82.638" id="path55" marker-start="url(#arrs)"/>
    <text x="774.62537" y="95.508766" id="text3860" transform="matrix(0.8279969,0.5607327,-0.5607327,0.8279969,0,0)"><tspan
     id="tspan3862" x="774.62537" y="95.508766">Abyssal</tspan></text>

    <!-- Hadal dimension -->
		<path class="dim2" d="M889.544,745.108 c4.378,37.395, 8.405,60, 10.97,78.851" id="path75" marker-end="url(#arre)" />
		<path class="dim2" d="M818.018,609.469 c20,8, 58,20, 61.497,56.998" id="path77" marker-start="url(#arrs)" />
    <text x="758.04437" y="-805.96875" id="text3847" transform="matrix(9.5347437e-2,0.9954441,-0.9954441,9.5347437e-2,0,0)"><tspan
     id="tspan3849" x="758.04437" y="-805.96875">Hadal</tspan></text>

    <!-- Benthic dimension -->
    <path class="dim2" d="M487.434,525.34c99.499,111.548,188.507,111.548,188.507,111.548     s121-12,151,39s35,127,36,152" id="path91" marker-end="url(#arre)" />
		<path class="dim2" d="M95.941,306.888 c100,0, 222,0, 340,151" id="path93" marker-start="url(#arrs)"/>
    <text x="638.10748" y="-52.848846" id="text3875" transform="matrix(0.6175051,0.7865669,-0.7865669,0.6175051,0,0)"><tspan
     id="tspan3877" x="638.10748" y="-52.848846">Benthic</tspan></text>
    
    <!-- Pelagic line -->
    <line class="dim" x1="138.941" y1="52.888" x2="560.941" y2="52.888" id="line123" marker-start="url(#arrs)" />
		<line class="dim" x1="637.941" y1="52.888" x2="1090.941" y2="52.888" id="line121" marker-end="url(#arre)" />
    <text x="564.13489" y="57.981052" id="text3769"><tspan id="tspan3771">Pelagic</tspan></text>
    
    <!-- vertical line, neritic and oceanic -->
    <line fill="none" stroke="#000000" stroke-dasharray="8 8" x1="428.941" y1="74.888" x2="428.941" y2="273.888" id="line125" />
    <!-- oceanic and neritic -->
		<line class="dim" x1="138.941" y1="92.138" x2="244.94" y2="92.138" id="line119" marker-start="url(#arrs)" />
		<line class="dim" x1="314.941" y1="92.138" x2="428.941" y2="92.138" id="line117" marker-end="url(#arre)" />
    <text x="249.07101" y="95.612122" id="text3773"><tspan id="tspan3775">Neritic</tspan></text>
	  <line class="dim" x1="764.941" y1="92.138" x2="1090.941" y2="92.138" id="line115" marker-end="url(#arre)" />
		<line class="dim" x1="428.941" y1="92.138" x2="675.941" y2="92.138" id="line117-7" marker-start="url(#arrs)" />
    <text x="681.78839" y="96.711761" id="text3777"><tspan id="tspan3779">Oceanic</tspan></text>
			
    <!-- horizontal dimension line, Littoral -->
    <line class="dim" x1="93.941" y1="200" x2="138.941" y2="200" id="line131" marker-start="url(#arrs)" marker-end="url(#arre)" />
    <line class="dim" x1="138.941" y1="200" x2="160" y2="200" />
    <text x="165" y="205" id="text3787"><tspan id="tspan3789">Littoral</tspan></text>
    
    <!-- horizontal dimension line, sublittoral or shelf -->
    <line class="dim" x1="138.941" y1="249.887" x2="188.941" y2="249.887" id="line135" marker-start="url(#arrs)" />
    <line class="dim" x1="360.941" y1="249.887" x2="426.941" y2="249.887" id="line133" marker-end="url(#arre)" />
    <text x="189.01173" y="254.29172" id="text3791"><tspan id="tspan3793">Sublittoral or shelf</tspan></text>
    
    <!-- vertical dimension line, photic -->
		<line fill="none" stroke="#000000" x1="1068.951" y1="114.888" x2="1068.951" y2="125.888" id="line141" marker-start="url(#arrs)" />
    <line fill="none" stroke="#000000" x1="1068.951" y1="146.888" x2="1068.951" y2="158.888" id="line139" marker-end="url(#arre)" />
    <text x="1068.951" y="141.73782" id="text3799" text-anchor="middle"><tspan id="tspan3801">Photic</tspan></text>
    
    <!-- vertical dimension line, Aphotic-->
    <line fill="none" stroke="#000000" x1="1068.951" y1="158.888" x2="1068.951" y2="441.888" id="line139-8" marker-start="url(#arrs)" />
    <line fill="none" stroke="#000000" x1="1068.951" y1="474.888" x2="1068.951" y2="829.888" id="line137" marker-end="url(#arre)" />
    <text x="1068.951" y="464.03418" id="text3831" text-anchor="middle"><tspan id="tspan3833">Aphotic</tspan></text>
    
    <text x="1000" y="140.63818" id="text3795" text-anchor="end"><tspan id="tspan3797">Epipelagic</tspan></text>
    <text x="1040" y="224.32852" id="text3807" text-anchor="end"><tspan id="tspan3809">Mesopelagic</tspan></text>
    <text x="1040" y="350.38062" id="text3823" text-anchor="end"><tspan id="tspan3825">Bathypelagic</tspan></text>
    <text x="1040" y="510.52881" id="text3835" text-anchor="end"><tspan id="tspan3837">Abyssalpelagic</tspan></text>
    <text x="1040" y="703.73981" id="text3843" text-anchor="end"><tspan id="tspan3845">Hadalpelagic</tspan></text>
    
    <text style="font-size:56px;" x="92.989189" y="597.31873" id="text3887"><tspan
     id="tspan3889">Oceanic</tspan><tspan
     x="92.989189" y="667.31873" id="tspan3891">divisions</tspan></text>
  </g>
</svg>
